<svg width="160" height="66" viewBox="0 0 160 66" fill="none" xmlns="http://www.w3.org/2000/svg">
<g clip-path="url(#clip0_2753_1703)">
<path d="M6.94279 62.4667C6.94279 64.6613 5.45659 66.0025 3.47258 66.0025C1.48857 66.0025 -0.00244141 64.6637 -0.00244141 62.4667V57.6714H1.67134V62.5917C1.67134 63.82 2.45292 64.4521 3.47258 64.4521C4.49224 64.4521 5.26901 63.8224 5.26901 62.5917V57.6714H6.94279V62.4667Z" fill="#0F0DB3"/>
<path d="M19.448 57.6688V66H18.8877L14.1501 60.9426V65.8533H12.4788V57.5222H13.0223L17.7719 62.5435V57.6712H19.4456L19.448 57.6688Z" fill="#0F0DB3"/>
<path d="M26.718 65.851H25.0442V57.6689H26.718V65.851Z" fill="#0F0DB3"/>
<path d="M39.3964 57.6689L35.7506 66.0001H35.1879L31.5325 57.6689H33.4275L35.4764 62.6277L37.5109 57.6689H39.3964Z" fill="#0F0DB3"/>
<path d="M49.742 59.1833H45.9062V60.8418H48.7295V62.2672H45.9062V64.3391H49.8911V65.851H44.2349V57.6689H49.742V59.1809V59.1833Z" fill="#0F0DB3"/>
<path d="M60.0902 65.851L57.9691 62.9618H56.7402V65.851H55.0664V57.6689H58.1398C59.8641 57.6689 61.093 58.7121 61.093 60.3106C61.093 61.3634 60.5351 62.1951 59.6525 62.6277L61.9756 65.851H60.0902ZM56.7402 61.4884H58.1398C58.9214 61.4884 59.3807 61.0173 59.3807 60.3106C59.3807 59.6039 58.9238 59.1448 58.1398 59.1448H56.7402V61.4884Z" fill="#0F0DB3"/>
<path d="M71.9365 59.0728L70.7918 59.9525C70.395 59.3564 69.8996 59.0103 69.231 59.0103C68.6851 59.0103 68.2138 59.2578 68.2138 59.8011C68.2138 60.2746 68.5745 60.4717 69.1685 60.7457L70.0992 61.1567C71.3906 61.7264 72.1193 62.3826 72.1193 63.546C72.1193 65.0723 70.8784 66.0001 69.2551 66.0001C67.8386 66.0001 66.7011 65.2814 66.0951 64.1926L67.2446 63.3224C67.6943 63.9426 68.2763 64.5099 69.2551 64.5099C69.9741 64.5099 70.4214 64.1757 70.4214 63.6061C70.4214 63.0725 70.0246 62.885 69.3777 62.5893L68.4975 62.1927C67.3336 61.6591 66.5159 60.9885 66.5159 59.8371C66.5159 58.4214 67.6919 57.5176 69.2286 57.5176C70.5321 57.5176 71.4483 58.1738 71.9341 59.0679L71.9365 59.0728Z" fill="#0F0DB3"/>
<path d="M78.9948 65.851H77.3162V57.6689H78.9948V65.851Z" fill="#0F0DB3"/>
<path d="M90.7425 59.1833H88.1116V65.8535H86.4378V59.1833H83.8213V57.6714H90.7425V59.1833Z" fill="#0F0DB3"/>
<path d="M101.079 59.1832H97.2452V60.8418H100.057V62.2671H97.2452V64.3391H101.225V65.851H95.5667V57.6689H101.079V59.1808V59.1832ZM100.54 54.8687L98.8445 56.8781H97.6276L98.5174 54.573H100.54V54.8711V54.8687Z" fill="#0F0DB3"/>
<path d="M119.622 60.3106C119.622 61.8826 118.396 62.9618 116.672 62.9618H115.27V65.851H113.598V57.6689H116.672C118.396 57.6689 119.622 58.7121 119.622 60.3106ZM115.267 59.1448V61.5004H116.669C117.448 61.5004 117.91 61.0173 117.91 60.313C117.91 59.6087 117.451 59.1472 116.669 59.1472H115.267V59.1448Z" fill="#0F0DB3"/>
<path d="M128.516 64.7861H125.166L124.706 65.8533H122.907L126.568 57.5222H127.123L130.771 65.8533H128.973L128.516 64.7861ZM126.842 60.6566L125.76 63.4088H127.922L126.842 60.6566Z" fill="#0F0DB3"/>
<path d="M140.631 65.851L138.513 62.9618H137.286V65.851H135.608V57.6689H138.686C140.408 57.6689 141.634 58.7121 141.634 60.3106C141.634 61.3634 141.081 62.1951 140.198 62.6277L142.519 65.851H140.631ZM137.286 61.4884H138.686C139.467 61.4884 139.924 61.0173 139.924 60.3106C139.924 59.6039 139.467 59.1448 138.686 59.1448H137.286V61.4884Z" fill="#0F0DB3"/>
<path d="M148.947 65.851H147.269V57.6689H148.947V65.851Z" fill="#0F0DB3"/>
<path d="M159.815 59.0728L158.672 59.9525C158.278 59.3564 157.783 59.0103 157.107 59.0103C156.563 59.0103 156.094 59.2578 156.094 59.8011C156.094 60.2746 156.455 60.4717 157.047 60.7457L157.98 61.1567C159.266 61.7264 160 62.3826 160 63.546C160 65.0723 158.759 66.0001 157.136 66.0001C155.719 66.0001 154.579 65.2814 153.973 64.1926L155.13 63.3224C155.57 63.9426 156.152 64.5099 157.138 64.5099C157.857 64.5099 158.302 64.1757 158.302 63.6061C158.302 63.0725 157.905 62.885 157.261 62.5893L156.381 62.1927C155.214 61.6591 154.397 60.9885 154.397 59.8371C154.397 58.4214 155.573 57.5176 157.112 57.5176C158.415 57.5176 159.336 58.1738 159.82 59.0679L159.815 59.0728Z" fill="#0F0DB3"/>
<path d="M112.555 0.9374L134.742 23.1233L134.828 23.0392L112.636 0.853271L112.555 0.9374Z" fill="#0F0DB3"/>
<path d="M134.949 24.4429H112.605V24.5655H134.949V24.4429Z" fill="#0F0DB3"/>
<path d="M122.362 43.3767C121.97 44.6843 121.756 46.0712 121.756 47.5062C121.756 47.6961 121.763 47.8932 121.768 48.0831H122.006C121.999 47.8932 121.996 47.6961 121.996 47.5062C121.996 46.1337 122.188 44.8021 122.554 43.5426" fill="#0F0DB3"/>
<path d="M149.674 43.5425C150.037 44.8021 150.239 46.1337 150.239 47.5062C150.239 47.7009 150.229 47.8932 150.222 48.0831H150.46C150.47 47.8932 150.474 47.7009 150.474 47.5062C150.474 46.1145 150.277 44.7684 149.914 43.4993" fill="#0F0DB3"/>
<path d="M112.636 48.1168L112.555 48.0327L135.362 25.2314L135.451 25.3156L112.636 48.1168Z" fill="#0F0DB3"/>
<path d="M159.596 47.9724L138.618 27.0028L138.707 26.9163L159.68 47.8859L159.596 47.9724Z" fill="#0F0DB3"/>
<path d="M137.358 24.5535L159.786 24.5751V24.4549L137.358 24.4309V24.5535Z" fill="#0F0DB3"/>
<path d="M136.228 33.3943H136.105V48.0855H136.228V33.3943Z" fill="#0F0DB3"/>
<path d="M112.858 1.17059H159.541V47.8355H112.858V1.17059ZM112.444 48.2465H159.947V0.761963H112.444V48.2441V48.2465Z" fill="#0F0DB3"/>
<path d="M136.209 1.38201C128.701 1.38201 121.635 5.038 117.307 11.1553C113.74 16.1958 112.36 22.3204 113.406 28.4041C114.45 34.4854 117.8 39.7975 122.843 43.3597C126.767 46.1336 131.375 47.5998 136.165 47.5998C143.669 47.5998 150.734 43.9462 155.058 37.8289C158.627 32.786 160.014 26.6614 158.966 20.5777C157.922 14.4964 154.57 9.18192 149.527 5.61968C145.602 2.84825 140.999 1.38201 136.206 1.38201M136.17 48.0108C131.296 48.0108 126.604 46.5157 122.614 43.6962C117.485 40.0715 114.07 34.6632 112.999 28.4762C111.939 22.2843 113.353 16.0492 116.975 10.9198C121.378 4.69187 128.571 0.973389 136.211 0.973389C141.086 0.973389 145.775 2.46607 149.77 5.28798C154.902 8.91271 158.317 14.321 159.375 20.508C160.442 26.6975 159.031 32.9326 155.402 38.0644C151.001 44.2899 143.806 48.0108 136.17 48.0108Z" fill="#0F0DB3"/>
<path d="M147.851 13.0446C151.434 13.0446 154.637 14.6959 156.741 17.275H157.047C154.899 14.5541 151.581 12.8042 147.851 12.8042C145.121 12.8042 142.613 13.7488 140.622 15.316L140.699 15.5612C142.658 13.9892 145.143 13.0446 147.848 13.0446" fill="#0F0DB3"/>
<path d="M147.427 36.1849C147.567 36.1897 147.711 36.1945 147.853 36.1945C154.305 36.1945 159.555 30.9497 159.555 24.5006C159.555 22.0225 158.778 19.7173 157.451 17.8232L157.261 17.9651C158.557 19.8207 159.319 22.0705 159.319 24.5006C159.319 30.8175 154.178 35.9565 147.855 35.9565C147.687 35.9565 147.521 35.9493 147.35 35.9445" fill="#0F0DB3"/>
<path d="M158.211 17.2751H157.047C157.184 17.453 157.321 17.6357 157.453 17.8232L158.211 17.2751Z" fill="#0F0DB3"/>
<path d="M157.258 17.965L157.448 17.8232C157.319 17.6381 157.184 17.4506 157.047 17.2751H156.741C156.924 17.4963 157.095 17.7294 157.258 17.965Z" fill="#0F0DB3"/>
<path d="M147.42 36.1726C147.398 36.1005 147.372 36.0284 147.353 35.9563L147.42 36.1726Z" fill="#0F0DB3"/>
<path d="M149.332 41.8912L147.427 36.1849C146.261 36.1416 145.143 35.9277 144.087 35.5671C146.393 37.1127 148.233 39.3073 149.332 41.8912Z" fill="#0F0DB3"/>
<path d="M141.237 17.2751L140.701 15.5613C138.077 17.6645 136.391 20.8878 136.391 24.5005C136.391 30.6467 141.266 35.6752 147.346 35.9444L144.45 27.272L157.258 17.965C157.095 17.727 156.919 17.4986 156.741 17.2751H141.237Z" fill="#0F0DB3"/>
<path d="M136.117 33.1538C137.87 33.1538 139.554 33.4711 141.107 34.048C138.113 31.928 136.151 28.4403 136.151 24.503C136.151 20.7822 137.902 17.4627 140.622 15.3186L136.168 1.21387L131.024 17.2776H114.238L127.813 27.2L122.915 41.8575C125.11 36.7425 130.194 33.1563 136.115 33.1563" fill="#0F0DB3"/>
<path d="M149.767 43.2058L149.601 43.3236C147.824 37.5716 142.454 33.3916 136.12 33.3916C129.785 33.3916 124.466 37.5259 122.655 43.2322L122.503 43.1096L122.388 43.451L136.165 33.394L149.883 43.5423L149.765 43.2034L149.767 43.2058Z" fill="#0F0DB3"/>
<path d="M122.455 43.076L122.503 43.1097L122.917 41.855C122.751 42.2516 122.592 42.6578 122.455 43.076Z" fill="#0F0DB3"/>
<path d="M149.808 43.1771C149.674 42.7396 149.51 42.3142 149.332 41.8936L149.767 43.206L149.808 43.1771Z" fill="#0F0DB3"/>
<path d="M137.895 22.6979L137.981 22.7844L159.873 0.910995L159.786 0.824463L137.895 22.6979Z" fill="#0F0DB3"/>
<path d="M5.61539 5.8265V23.3661H16.2978C22.4109 23.3661 25.5709 19.7005 25.5709 14.5951C25.5709 9.4897 22.4109 5.8265 16.2978 5.8265H5.61539ZM31.256 14.5206C31.256 22.5777 25.5709 28.3994 16.4372 28.3994H5.61539V48.2417H0.139526V0.793213H16.4348C25.5685 0.793213 31.2536 6.5428 31.2536 14.5206" fill="#0F0DB3"/>
<path d="M66.3693 8.0547L62.3652 11.1434C59.9051 7.3336 55.9659 5.17751 51.755 5.17751C47.5441 5.17751 43.5352 7.40331 43.5352 12.0784C43.5352 16.393 46.7649 17.9747 50.983 20.0586L56.1078 22.5777C62.8558 25.8827 66.9224 29.4065 66.9224 35.8075C66.9224 43.7853 60.5375 49.0349 51.9642 49.0349C44.5909 49.0349 38.4778 45.0809 34.8945 38.8241L38.9732 35.7306C41.7796 40.1173 45.9232 43.855 51.8945 43.855C57.3703 43.855 61.2422 40.7639 61.2422 35.9493C61.2422 31.5626 58.075 29.8368 53.5081 27.6086L48.3112 25.0919C42.9027 22.4311 37.8453 19.0515 37.8453 12.3669C37.8453 4.81936 44.3071 0 51.8247 0C58.1447 0 63.4859 3.37956 66.3669 8.0547" fill="#0F0DB3"/>
<path d="M76.6573 0.793213V48.2441H104.126V43.2108H82.1356V0.793213H76.6573Z" fill="#0F0DB3"/>
</g>
<defs>
<clipPath id="clip0_2753_1703">
<rect width="160" height="66" fill="white"/>
</clipPath>
</defs>
</svg>
